<?xml version="1.0" standalone="no"?>
<!DOCTYPE svg PUBLIC "-//W3C//DTD SVG 20010904//EN"
 "http://www.w3.org/TR/2001/REC-SVG-20010904/DTD/svg10.dtd">
<svg version="1.0" xmlns="http://www.w3.org/2000/svg"
 width="700.000000pt" height="700.000000pt" viewBox="0 0 700.000000 700.000000"
 preserveAspectRatio="xMidYMid meet">
<metadata>
Created by potrace 1.14, written by Peter Selinger 2001-2017
</metadata>
<g transform="translate(0.000000,700.000000) scale(0.100000,-0.100000)"
fill="#000000" stroke="none">
<path d="M3282 6699 c-347 -44 -638 -176 -886 -401 -47 -43 -50 -44 -95 -37
-49 8 -319 4 -361 -4 -14 -3 -43 -8 -65 -12 -22 -3 -47 -7 -55 -10 -8 -2 -27
-6 -42 -9 -15 -2 -75 -21 -135 -41 -436 -149 -775 -474 -950 -911 -16 -40 -61
-193 -68 -229 -3 -16 -7 -42 -10 -56 -27 -144 -28 -387 -1 -535 47 -263 156
-504 319 -709 62 -77 199 -209 280 -269 90 -66 226 -145 315 -182 37 -15 69
-29 72 -31 2 -2 5 -495 6 -1096 1 -974 3 -1098 18 -1150 35 -124 109 -235 213
-315 41 -32 153 -89 189 -96 11 -3 37 -8 59 -13 23 -6 629 -9 1435 -8 1380 1
1396 1 1457 22 194 65 343 213 394 393 7 25 14 52 17 60 2 8 5 505 6 1105 l2
1090 139 70 c209 105 267 146 430 310 164 164 291 367 363 580 44 129 59 198
78 360 5 40 5 275 0 300 -2 11 -7 43 -10 70 -11 79 -42 202 -76 298 -123 347
-376 646 -706 831 -109 61 -255 118 -384 149 -143 35 -164 38 -330 42 -127 3
-199 -1 -316 -19 -21 -4 -35 0 -45 12 -9 9 -33 33 -55 52 -225 201 -479 323
-777 376 -103 18 -330 25 -425 13z m293 -583 c225 -25 462 -156 619 -343 77
-92 81 -95 135 -122 71 -37 139 -37 276 -1 349 91 698 -2 943 -252 194 -197
286 -437 277 -718 -8 -247 -104 -468 -278 -642 -129 -130 -258 -203 -451 -257
-57 -16 -117 -36 -133 -45 -45 -23 -98 -80 -124 -133 -24 -48 -24 -51 -26
-433 -1 -212 -2 -388 -3 -392 0 -5 -360 -8 -800 -8 l-800 0 -1 298 c0 163 -2
312 -5 331 -9 75 -65 159 -136 205 -73 48 -186 52 -276 11 -64 -29 -106 -73
-140 -145 l-26 -55 -1 -320 0 -320 -218 -3 -217 -2 0 52 c0 29 -2 206 -3 393
-3 323 -4 342 -25 385 -11 25 -38 63 -59 84 -38 38 -123 86 -154 86 -9 0 -48
9 -85 21 -421 128 -703 523 -688 961 15 428 304 787 724 902 74 20 159 30 255
29 72 0 172 -10 185 -18 3 -2 26 -6 50 -10 25 -4 51 -8 59 -9 28 -5 104 14
148 36 34 17 112 92 163 157 3 4 32 30 65 58 137 117 330 201 501 219 33 4 60
7 61 9 5 3 127 -2 188 -9z m1236 -3979 c3 -285 -1 -960 -5 -965 -4 -3 -593 -6
-1311 -6 l-1305 -1 -1 80 c0 81 0 811 1 897 l0 46 1310 0 1310 1 1 -52z"/>
</g>
</svg>
